<svg width="55" height="55" viewBox="0 0 55 55" fill="none" xmlns="http://www.w3.org/2000/svg">
<g id="skill-icons:instagram" clip-path="url(#clip0_94_29)" filter="url(#filter0_d_94_29)">
<g id="Group">
<path id="Vector" d="M39.9844 0H15.0156C8.93186 0 4 4.93186 4 11.0156V35.9844C4 42.0681 8.93186 47 15.0156 47H39.9844C46.0681 47 51 42.0681 51 35.9844V11.0156C51 4.93186 46.0681 0 39.9844 0Z" fill="url(#paint0_radial_94_29)"/>
<path id="Vector_2" d="M39.9844 0H15.0156C8.93186 0 4 4.93186 4 11.0156V35.9844C4 42.0681 8.93186 47 15.0156 47H39.9844C46.0681 47 51 42.0681 51 35.9844V11.0156C51 4.93186 46.0681 0 39.9844 0Z" fill="url(#paint1_radial_94_29)"/>
<path id="Vector_3" d="M27.5017 5.14062C22.5156 5.14062 21.8897 5.16247 19.9315 5.25152C17.977 5.34111 16.6428 5.65046 15.4755 6.10449C14.2678 6.57339 13.2436 7.20073 12.2232 8.22151C11.2018 9.24211 10.5745 10.2664 10.1041 11.4735C9.64881 12.6412 9.33909 13.9759 9.25115 15.9295C9.16357 17.8879 9.14062 18.514 9.14062 23.5002C9.14062 28.4864 9.16266 29.1103 9.25152 31.0685C9.34148 33.023 9.65083 34.3572 10.1045 35.5245C10.5738 36.7322 11.2011 37.7564 12.2219 38.7768C13.2421 39.7982 14.2664 40.427 15.4731 40.8959C16.6413 41.3499 17.9757 41.6593 19.9299 41.7489C21.8883 41.8379 22.5136 41.8597 27.4994 41.8597C32.486 41.8597 33.1099 41.8379 35.0681 41.7489C37.0226 41.6593 38.3583 41.3499 39.5265 40.8959C40.7336 40.427 41.7564 39.7982 42.7765 38.7768C43.7978 37.7564 44.425 36.7322 44.8955 35.525C45.3468 34.3572 45.6567 33.0226 45.7485 31.0688C45.8364 29.1106 45.8594 28.4864 45.8594 23.5002C45.8594 18.514 45.8364 17.8883 45.7485 15.9299C45.6567 13.9753 45.3468 12.6413 44.8955 11.4741C44.425 10.2664 43.7978 9.24211 42.7765 8.22151C41.7553 7.20036 40.734 6.57302 39.5254 6.10468C38.355 5.65046 37.0201 5.34093 35.0655 5.25152C33.1071 5.16247 32.4837 5.14062 27.496 5.14062H27.5017ZM25.8546 8.44917C26.3435 8.44843 26.889 8.44917 27.5017 8.44917C32.4038 8.44917 32.9847 8.46679 34.9205 8.55473C36.7105 8.63662 37.6821 8.93569 38.3293 9.18703C39.1861 9.5197 39.7969 9.91755 40.4391 10.5603C41.0817 11.2029 41.4794 11.8148 41.813 12.6716C42.0643 13.3179 42.3638 14.2895 42.4453 16.0795C42.5332 18.015 42.5523 18.5962 42.5523 23.496C42.5523 28.3957 42.5332 28.9772 42.4453 30.9124C42.3634 32.7025 42.0643 33.674 41.813 34.3205C41.4803 35.1773 41.0817 35.7874 40.4391 36.4296C39.7966 37.0722 39.1865 37.4698 38.3293 37.8027C37.6828 38.0551 36.7105 38.3535 34.9205 38.4354C32.985 38.5233 32.4038 38.5424 27.5017 38.5424C22.5993 38.5424 22.0183 38.5233 20.083 38.4354C18.293 38.3527 17.3214 38.0537 16.6737 37.8023C15.817 37.4695 15.2049 37.0718 14.5623 36.4292C13.9198 35.7866 13.5221 35.1762 13.1885 34.319C12.9372 33.6726 12.6377 32.701 12.5562 30.9109C12.4683 28.9755 12.4506 28.3942 12.4506 23.4914C12.4506 18.5887 12.4683 18.0104 12.5562 16.0749C12.6381 14.2849 12.9372 13.3133 13.1885 12.6661C13.5214 11.8093 13.9198 11.1974 14.5625 10.5548C15.2051 9.91223 15.817 9.51438 16.6738 9.18097C17.321 8.92853 18.293 8.63019 20.083 8.54794C21.7766 8.47138 22.433 8.44843 25.8546 8.44458V8.44917ZM37.3019 11.4976C36.0856 11.4976 35.0988 12.4835 35.0988 13.6999C35.0988 14.9163 36.0856 15.9031 37.3019 15.9031C38.5182 15.9031 39.505 14.9163 39.505 13.6999C39.505 12.4836 38.5182 11.4968 37.3019 11.4968V11.4976ZM27.5017 14.0717C22.2949 14.0717 18.0734 18.2933 18.0734 23.5002C18.0734 28.7071 22.2949 32.9266 27.5017 32.9266C32.7086 32.9266 36.9286 28.7071 36.9286 23.5002C36.9286 18.2935 32.7082 14.0717 27.5013 14.0717H27.5017ZM27.5017 17.3803C30.8814 17.3803 33.6216 20.12 33.6216 23.5002C33.6216 26.88 30.8814 29.6201 27.5017 29.6201C24.1217 29.6201 21.3819 26.88 21.3819 23.5002C21.3819 20.12 24.1217 17.3803 27.5017 17.3803Z" fill="white"/>
</g>
</g>
<defs>
<filter id="filter0_d_94_29" x="0" y="0" width="55" height="55" filterUnits="userSpaceOnUse" color-interpolation-filters="sRGB">
<feFlood flood-opacity="0" result="BackgroundImageFix"/>
<feColorMatrix in="SourceAlpha" type="matrix" values="0 0 0 0 0 0 0 0 0 0 0 0 0 0 0 0 0 0 127 0" result="hardAlpha"/>
<feOffset dy="4"/>
<feGaussianBlur stdDeviation="2"/>
<feComposite in2="hardAlpha" operator="out"/>
<feColorMatrix type="matrix" values="0 0 0 0 0 0 0 0 0 0 0 0 0 0 0 0 0 0 0.25 0"/>
<feBlend mode="normal" in2="BackgroundImageFix" result="effect1_dropShadow_94_29"/>
<feBlend mode="normal" in="SourceGraphic" in2="effect1_dropShadow_94_29" result="shape"/>
</filter>
<radialGradient id="paint0_radial_94_29" cx="0" cy="0" r="1" gradientUnits="userSpaceOnUse" gradientTransform="translate(16.4844 50.6199) rotate(-90) scale(46.5805 43.3235)">
<stop stop-color="#FFDD55"/>
<stop offset="0.1" stop-color="#FFDD55"/>
<stop offset="0.5" stop-color="#FF543E"/>
<stop offset="1" stop-color="#C837AB"/>
</radialGradient>
<radialGradient id="paint1_radial_94_29" cx="0" cy="0" r="1" gradientUnits="userSpaceOnUse" gradientTransform="translate(-3.87268 3.38565) rotate(78.681) scale(20.8217 85.8279)">
<stop stop-color="#3771C8"/>
<stop offset="0.128" stop-color="#3771C8"/>
<stop offset="1" stop-color="#6600FF" stop-opacity="0"/>
</radialGradient>
<clipPath id="clip0_94_29">
<rect width="47" height="47" fill="white" transform="translate(4)"/>
</clipPath>
</defs>
</svg>
