<svg width="29" height="29" viewBox="0 0 29 29" fill="none" xmlns="http://www.w3.org/2000/svg">
<g id="material-symbols:mail-outline">
<path id="Vector" d="M4.83317 24.1667C4.16859 24.1667 3.59987 23.9303 3.127 23.4574C2.65414 22.9846 2.41731 22.4154 2.4165 21.75V7.25004C2.4165 6.58546 2.65334 6.01673 3.127 5.54387C3.60067 5.07101 4.16939 4.83418 4.83317 4.83337H24.1665C24.8311 4.83337 25.4002 5.07021 25.8739 5.54387C26.3475 6.01754 26.584 6.58626 26.5832 7.25004V21.75C26.5832 22.4146 26.3467 22.9837 25.8739 23.4574C25.401 23.9311 24.8319 24.1675 24.1665 24.1667H4.83317ZM14.4998 15.7084L4.83317 9.66671V21.75H24.1665V9.66671L14.4998 15.7084ZM14.4998 13.2917L24.1665 7.25004H4.83317L14.4998 13.2917ZM4.83317 9.66671V7.25004V21.75V9.66671Z" fill="white"/>
</g>
</svg>
