<svg width="340" height="60" viewBox="0 0 340 60" fill="none" xmlns="http://www.w3.org/2000/svg">
<path d="M229.146 27.2C229.444 27.2 229.593 27.3572 229.593 27.6714V29.7071C229.593 30.0215 229.444 30.1786 229.146 30.1786H218.965C218.572 30.1786 218.294 30.2857 218.132 30.5C217.969 30.7143 217.888 31.0071 217.888 31.3786V32.1071C217.888 32.9072 218.24 33.3071 218.945 33.3071H226.565C227.744 33.3071 228.631 33.6286 229.227 34.2714C229.823 34.9 230.121 35.8071 230.121 36.9929V38.7071C230.121 39.75 229.83 40.5929 229.248 41.2357C228.665 41.8785 227.758 42.2 226.525 42.2H215.266C214.954 42.2 214.798 42.0429 214.798 41.7286V39.6929C214.798 39.3786 214.954 39.2215 215.266 39.2215H225.935C226.328 39.2215 226.606 39.1143 226.769 38.9C226.931 38.6857 227.013 38.3929 227.013 38.0214V37.1429C227.013 36.3429 226.66 35.9429 225.956 35.9429H218.335C217.156 35.9429 216.269 35.6286 215.672 35C215.076 34.3571 214.778 33.4428 214.778 32.2571V30.6929C214.778 29.65 215.069 28.8071 215.652 28.1643C216.235 27.5215 217.143 27.2 218.376 27.2H229.146ZM234.703 27.2C235.001 27.2 235.15 27.3572 235.15 27.6714V33.2429H244.66V27.6714C244.66 27.3572 244.809 27.2 245.107 27.2H247.302C247.614 27.2 247.77 27.3572 247.77 27.6714V41.7286C247.77 42.0429 247.614 42.2 247.302 42.2H245.107C244.809 42.2 244.66 42.0429 244.66 41.7286V36.0286H235.15V41.7286C235.15 42.0429 235.001 42.2 234.703 42.2H232.508C232.196 42.2 232.041 42.0429 232.041 41.7286V27.6714C232.041 27.3572 232.196 27.2 232.508 27.2H234.703ZM252.713 27.2C253.011 27.2 253.16 27.3572 253.16 27.6714V41.7286C253.16 42.0429 253.011 42.2 252.713 42.2H250.518C250.207 42.2 250.051 42.0429 250.051 41.7286V27.6714C250.051 27.3572 250.207 27.2 250.518 27.2H252.713ZM269.929 27.2C270.24 27.2 270.396 27.3572 270.396 27.6714V29.7071C270.396 30.0215 270.24 30.1786 269.929 30.1786H261.048C260.52 30.1786 260.079 30.2286 259.727 30.3286C259.388 30.4143 259.111 30.5714 258.894 30.8C258.69 31.0143 258.548 31.3143 258.467 31.7C258.386 32.0714 258.345 32.5357 258.345 33.0929V33.3071H269.827C270.125 33.3071 270.274 33.4643 270.274 33.7786V35.4714C270.274 35.7857 270.125 35.9429 269.827 35.9429H258.345V36.3071C258.345 36.8643 258.386 37.3357 258.467 37.7214C258.548 38.0929 258.69 38.3929 258.894 38.6214C259.111 38.8357 259.388 38.9928 259.727 39.0929C260.079 39.1786 260.52 39.2215 261.048 39.2215H269.929C270.24 39.2215 270.396 39.3786 270.396 39.6929V41.7286C270.396 42.0429 270.24 42.2 269.929 42.2H260.987C259.957 42.2 259.083 42.1 258.365 41.9C257.647 41.7 257.058 41.3786 256.597 40.9357C256.15 40.4786 255.818 39.8929 255.601 39.1786C255.398 38.45 255.296 37.5714 255.296 36.5429V32.8571C255.296 31.8286 255.398 30.9572 255.601 30.2429C255.818 29.5286 256.15 28.95 256.597 28.5071C257.058 28.05 257.647 27.7214 258.365 27.5215C259.083 27.3071 259.957 27.2 260.987 27.2H269.929ZM274.94 27.2C275.238 27.2 275.387 27.3572 275.387 27.6714V36.2214C275.387 36.7929 275.428 37.2714 275.509 37.6571C275.604 38.0286 275.753 38.3286 275.956 38.5571C276.16 38.7714 276.431 38.9286 276.769 39.0286C277.121 39.1143 277.562 39.1571 278.09 39.1571H286.32C286.618 39.1571 286.767 39.3143 286.767 39.6286V41.7286C286.767 42.0429 286.618 42.2 286.32 42.2H277.968C276.938 42.2 276.065 42.1 275.347 41.9C274.629 41.7 274.039 41.3786 273.578 40.9357C273.132 40.4786 272.799 39.8929 272.583 39.1786C272.379 38.45 272.278 37.5714 272.278 36.5429V27.6714C272.278 27.3572 272.434 27.2 272.745 27.2H274.94ZM298.306 27.2C299.403 27.2 300.345 27.3215 301.131 27.5643C301.917 27.7929 302.56 28.1572 303.062 28.6571C303.563 29.1429 303.929 29.7715 304.159 30.5429C304.403 31.3 304.525 32.2 304.525 33.2429V36.1571C304.525 37.2 304.403 38.1071 304.159 38.8786C303.929 39.6358 303.563 40.2643 303.062 40.7643C302.56 41.25 301.917 41.6143 301.131 41.8571C300.345 42.0857 299.403 42.2 298.306 42.2H288.795C288.389 42.2 288.186 41.9857 288.186 41.5571V27.8429C288.186 27.4143 288.389 27.2 288.795 27.2H298.306ZM291.295 38.9429C291.295 39.1286 291.383 39.2215 291.559 39.2215H298.224C298.821 39.2215 299.322 39.1643 299.728 39.05C300.135 38.9357 300.46 38.75 300.704 38.4929C300.962 38.2357 301.144 37.8929 301.253 37.4643C301.361 37.0357 301.415 36.5072 301.415 35.8786V33.5214C301.415 32.8929 301.361 32.3643 301.253 31.9357C301.144 31.5071 300.962 31.1643 300.704 30.9071C300.46 30.65 300.135 30.4643 299.728 30.35C299.322 30.2357 298.821 30.1786 298.224 30.1786H291.559C291.383 30.1786 291.295 30.2786 291.295 30.4786V38.9429Z" fill="#333333"/>
<path d="M34.9327 4.03845H25.5606C25.2133 4.03845 24.8651 4.06581 24.5255 4.13864C21.7048 4.74369 20.5698 5.96307 19.2921 8.99324L4.61641 38.8706C4.2285 39.6603 4.02686 40.5277 4.02686 41.4067C4.02686 42.5248 4.35301 43.6188 4.96577 44.5561L10.2907 52.7013C10.8217 53.5135 11.5466 54.1821 12.4006 54.647L13.4899 55.2407C14.3578 55.7136 15.3314 55.9615 16.3208 55.9615H45.4237C46.4335 55.9615 47.4265 55.703 48.3073 55.2118L49.1938 54.717C50.1072 54.207 50.8676 53.4643 51.3967 52.565L56.147 44.4921C56.6754 43.5935 56.9541 42.5711 56.9541 41.5299V41.3915C56.9541 40.5219 56.7599 39.6632 56.3849 38.8777L42.1309 8.99324C40.7244 6.42536 39.4787 5.26647 36.6178 4.29886C36.0764 4.11575 35.5045 4.03845 34.9327 4.03845Z" stroke="#333333" stroke-width="6"/>
<g filter="url(#filter0_d_170_9)">
<path d="M30.554 22.2531L35.2292 24.9605L37.5998 23.5918L30.554 19.5097L18.7852 26.3292L21.1438 27.698L30.554 22.2531Z" fill="#FF0000"/>
<path d="M39.9587 24.9605L30.5544 30.4053L25.8792 27.6979L23.5146 29.0666L30.5544 33.1428L42.3292 26.3292L39.9587 24.9605Z" fill="#FF0000"/>
<path d="M20.677 34.1214L18.3125 32.7526V40.9049L30.0813 47.7244V44.987L20.677 39.5362V34.1214Z" fill="#FF0000"/>
<path d="M18.3125 30.0151L27.7168 35.4599V40.8748L30.0813 42.2495V34.0912L18.3125 27.2777V30.0151Z" fill="#FF0000"/>
<path d="M38.0731 32.7526V30.0152L31.0273 34.0913V47.7244L33.3919 46.3557V35.46L38.0731 32.7526Z" fill="#FF0000"/>
<path d="M40.4316 28.6464V39.5361L35.7563 42.2495V44.9869L42.8021 40.9047V27.2777L40.4316 28.6464Z" fill="#FF0000"/>
</g>
<path d="M69.3877 42.1733V39.4733L81.2964 39.494C81.9039 39.494 82.3664 39.3556 82.684 39.0787C83.0153 38.7879 83.181 38.324 83.181 37.6871C83.181 37.0502 83.0153 36.5933 82.684 36.3163C82.3664 36.0256 81.9039 35.8802 81.2964 35.8802H73.8819C72.3494 35.8802 71.155 35.5133 70.299 34.7794C69.4568 34.0317 69.0356 32.9379 69.0356 31.4979C69.0356 30.0579 69.4568 28.971 70.299 28.2371C71.155 27.4894 72.3494 27.1156 73.8819 27.1156H85.5213V29.8156L74.234 29.7948C73.6403 29.7948 73.1778 29.9333 72.8464 30.2102C72.515 30.4733 72.3494 30.9025 72.3494 31.4979C72.3494 32.0933 72.515 32.5294 72.8464 32.8063C73.1778 33.0694 73.6403 33.201 74.234 33.201H81.6484C83.181 33.201 84.3685 33.5817 85.2107 34.3433C86.0667 35.091 86.4947 36.2056 86.4947 37.6871C86.4947 39.1548 86.0667 40.2694 85.2107 41.031C84.3685 41.7925 83.181 42.1733 81.6484 42.1733H69.3877ZM88.5727 42.0694V27.2194H104.81V29.9194H91.8864V33.201H103.609V35.901H91.8864V39.3694H104.81V42.0694H88.5727ZM114.7 42.1733C111.967 42.1733 109.875 41.5433 108.425 40.2833C106.975 39.0094 106.25 37.1263 106.25 34.634C106.25 32.1556 106.975 30.2794 108.425 29.0056C109.875 27.7317 111.967 27.1017 114.7 27.1156L122.156 27.1571V29.8156H114.928C113.133 29.8156 111.801 30.1963 110.931 30.9579C110.061 31.7194 109.626 32.9448 109.626 34.634C109.626 36.3233 110.061 37.5556 110.931 38.331C111.801 39.0925 113.133 39.4733 114.928 39.4733H122.363V42.1733H114.7ZM130.417 42.1733C128.912 42.1733 127.725 41.9794 126.855 41.5917C125.985 41.1902 125.364 40.5879 124.991 39.7848C124.618 38.9817 124.432 37.971 124.432 36.7525V27.2194H127.746V36.7525C127.746 37.8048 127.987 38.5248 128.471 38.9125C128.968 39.2863 129.803 39.4733 130.977 39.4733H134.974C136.147 39.4733 136.976 39.2863 137.459 38.9125C137.956 38.5248 138.205 37.8048 138.205 36.7525V27.2194H141.518V36.7525C141.518 37.971 141.332 38.9817 140.959 39.7848C140.586 40.5879 139.965 41.1902 139.095 41.5917C138.225 41.9794 137.038 42.1733 135.533 42.1733H130.417ZM144.414 42.0694V27.2194H156.82C158.353 27.2194 159.54 27.6071 160.382 28.3825C161.238 29.1579 161.666 30.3348 161.666 31.9133C161.666 33.2563 161.356 34.3087 160.734 35.0702C160.113 35.8317 159.229 36.3094 158.083 36.5033L161.501 42.0694H157.731L154.563 36.6071H147.728V42.0694H144.414ZM156.427 29.9194H147.728V33.8863L156.427 33.9071C157.034 33.9071 157.497 33.7548 157.814 33.4502C158.146 33.1456 158.311 32.6333 158.311 31.9133C158.311 31.1794 158.146 30.6671 157.814 30.3763C157.497 30.0717 157.034 29.9194 156.427 29.9194ZM164.154 42.0694V27.2194H167.468V42.0694H164.154ZM169.845 34.7379V27.2194H188.071V34.7379H184.716V29.9194H180.201V42.0694H176.887V29.9194H173.2V34.7379H169.845ZM196.847 42.0694V36.7733L188.998 27.2194H193.098L198.504 33.9487L203.889 27.2194H207.989L200.181 36.7525V42.0694H196.847Z" fill="#333333"/>
<defs>
<filter id="filter0_d_170_9" x="14.3125" y="19.5097" width="32.4897" height="36.2147" filterUnits="userSpaceOnUse" color-interpolation-filters="sRGB">
<feFlood flood-opacity="0" result="BackgroundImageFix"/>
<feColorMatrix in="SourceAlpha" type="matrix" values="0 0 0 0 0 0 0 0 0 0 0 0 0 0 0 0 0 0 127 0" result="hardAlpha"/>
<feOffset dy="4"/>
<feGaussianBlur stdDeviation="2"/>
<feComposite in2="hardAlpha" operator="out"/>
<feColorMatrix type="matrix" values="0 0 0 0 0 0 0 0 0 0 0 0 0 0 0 0 0 0 0.25 0"/>
<feBlend mode="normal" in2="BackgroundImageFix" result="effect1_dropShadow_170_9"/>
<feBlend mode="normal" in="SourceGraphic" in2="effect1_dropShadow_170_9" result="shape"/>
</filter>
</defs>
</svg>
