<svg width="91" height="16" viewBox="0 0 91 16" fill="none" xmlns="http://www.w3.org/2000/svg">
<path id="shield" d="M15.1458 0.200012C15.4443 0.200012 15.5933 0.357166 15.5933 0.671416V2.70715C15.5933 3.02145 15.4443 3.17855 15.1458 3.17855H4.96475C4.57182 3.17855 4.29395 3.28574 4.13172 3.50001C3.96891 3.71428 3.88779 4.00713 3.88779 4.37861V5.10715C3.88779 5.90717 4.23988 6.30715 4.94462 6.30715H12.565C13.7438 6.30715 14.6314 6.62861 15.2275 7.27142C15.8235 7.90003 16.1215 8.80713 16.1215 9.99288V11.7071C16.1215 12.75 15.8304 13.5929 15.2476 14.2357C14.6648 14.8785 13.7576 15.2 12.5247 15.2H1.26617C0.954361 15.2 0.798458 15.0429 0.798458 14.7286V12.6929C0.798458 12.3786 0.954361 12.2215 1.26617 12.2215H11.935C12.328 12.2215 12.6058 12.1143 12.7686 11.9C12.9309 11.6857 13.0126 11.3929 13.0126 11.0214V10.1429C13.0126 9.34286 12.6599 8.94288 11.9557 8.94288H4.3348C3.15602 8.94288 2.26891 8.62857 1.67233 8.00001C1.07632 7.35715 0.77832 6.44284 0.77832 5.25715V3.69288C0.77832 2.65003 1.06942 1.80715 1.65219 1.16428C2.23497 0.521473 3.14279 0.200012 4.37565 0.200012H15.1458ZM20.7025 0.200012C21.0006 0.200012 21.1496 0.357166 21.1496 0.671416V6.24288H30.6604V0.671416C30.6604 0.357166 30.8093 0.200012 31.1074 0.200012H33.3021C33.6139 0.200012 33.7698 0.357166 33.7698 0.671416V14.7286C33.7698 15.0429 33.6139 15.2 33.3021 15.2H31.1074C30.8093 15.2 30.6604 15.0429 30.6604 14.7286V9.02855H21.1496V14.7286C21.1496 15.0429 21.0006 15.2 20.7025 15.2H18.5078C18.196 15.2 18.0407 15.0429 18.0407 14.7286V0.671416C18.0407 0.357166 18.196 0.200012 18.5078 0.200012H20.7025ZM38.7133 0.200012C39.0114 0.200012 39.1598 0.357166 39.1598 0.671416V14.7286C39.1598 15.0429 39.0114 15.2 38.7133 15.2H36.518C36.2068 15.2 36.0509 15.0429 36.0509 14.7286V0.671416C36.0509 0.357166 36.2068 0.200012 36.518 0.200012H38.7133ZM55.9285 0.200012C56.2403 0.200012 56.3956 0.357166 56.3956 0.671416V2.70715C56.3956 3.02145 56.2403 3.17855 55.9285 3.17855H47.0477C46.5195 3.17855 46.0789 3.22857 45.7268 3.32861C45.3879 3.41428 45.1106 3.57144 44.8937 3.80001C44.6901 4.01428 44.548 4.31428 44.4669 4.70001C44.3858 5.07143 44.3449 5.53574 44.3449 6.09288V6.30715H55.8267C56.1247 6.30715 56.2743 6.4643 56.2743 6.77855V8.47142C56.2743 8.78572 56.1247 8.94288 55.8267 8.94288H44.3449V9.30715C44.3449 9.86428 44.3858 10.3357 44.4669 10.7214C44.548 11.0929 44.6901 11.3929 44.8937 11.6214C45.1106 11.8357 45.3879 11.9928 45.7268 12.0929C46.0789 12.1786 46.5195 12.2215 47.0477 12.2215H55.9285C56.2403 12.2215 56.3956 12.3786 56.3956 12.6929V14.7286C56.3956 15.0429 56.2403 15.2 55.9285 15.2H46.9867C45.9569 15.2 45.083 15.1 44.3651 14.9C43.6471 14.7 43.058 14.3786 42.5972 13.9357C42.1502 13.4786 41.8182 12.8929 41.6013 12.1786C41.3983 11.45 41.2964 10.5714 41.2964 9.54288V5.85715C41.2964 4.82861 41.3983 3.95717 41.6013 3.24288C41.8182 2.52859 42.1502 1.94999 42.5972 1.50715C43.058 1.04999 43.6471 0.721436 44.3651 0.521475C45.083 0.307148 45.9569 0.200012 46.9867 0.200012H55.9285ZM60.9399 0.200012C61.2385 0.200012 61.3869 0.357166 61.3869 0.671416V9.22142C61.3869 9.79286 61.4278 10.2714 61.5089 10.6571C61.6038 11.0286 61.7528 11.3286 61.9565 11.5571C62.1595 11.7714 62.4305 11.9286 62.7688 12.0286C63.1214 12.1143 63.5615 12.1571 64.0897 12.1571H72.3204C72.6184 12.1571 72.7674 12.3143 72.7674 12.6286V14.7286C72.7674 15.0429 72.6184 15.2 72.3204 15.2H63.9683C62.9385 15.2 62.0646 15.1 61.3466 14.9C60.6287 14.7 60.039 14.3786 59.5782 13.9357C59.1317 13.4786 58.7992 12.8929 58.5829 12.1786C58.3793 11.45 58.278 10.5714 58.278 9.54288V0.671416C58.278 0.357166 58.4339 0.200012 58.7452 0.200012H60.9399ZM84.3061 0.200012C85.4032 0.200012 86.345 0.321455 87.1309 0.564282C87.9167 0.792859 88.5599 1.15719 89.0615 1.65715C89.5626 2.14286 89.9285 2.77147 90.1586 3.54288C90.4026 4.30003 90.5245 5.20003 90.5245 6.24288V9.15715C90.5245 10.2 90.4026 11.1071 90.1586 11.8786C89.9285 12.6358 89.5626 13.2643 89.0615 13.7643C88.5599 14.25 87.9167 14.6143 87.1309 14.8571C86.345 15.0857 85.4032 15.2 84.3061 15.2H74.7953C74.3886 15.2 74.1855 14.9857 74.1855 14.5571V0.842877C74.1855 0.414281 74.3886 0.200012 74.7953 0.200012H84.3061ZM77.295 11.9429C77.295 12.1286 77.383 12.2215 77.5591 12.2215H84.2244C84.821 12.2215 85.3221 12.1643 85.7283 12.05C86.135 11.9357 86.4601 11.75 86.704 11.4929C86.9617 11.2357 87.1441 10.8929 87.2528 10.4643C87.361 10.0357 87.415 9.50717 87.415 8.87861V6.52142C87.415 5.89286 87.361 5.36428 87.2528 4.93574C87.1441 4.50715 86.9617 4.16428 86.704 3.90715C86.4601 3.65001 86.135 3.4643 85.7283 3.35001C85.3221 3.23572 84.821 3.17855 84.2244 3.17855H77.5591C77.383 3.17855 77.295 3.27859 77.295 3.47855V11.9429Z" fill="#333333"/>
</svg>
