<svg width="59" height="58" viewBox="0 0 59 58" fill="none" xmlns="http://www.w3.org/2000/svg">
<path id="Vector" d="M33.9327 3.03845H24.5606C24.2133 3.03845 23.8651 3.06581 23.5255 3.13864C20.7048 3.74369 19.5698 4.96307 18.2921 7.99324L3.61641 37.8706C3.2285 38.6603 3.02686 39.5277 3.02686 40.4067C3.02686 41.5248 3.35301 42.6188 3.96577 43.5561L9.29074 51.7013C9.82168 52.5135 10.5466 53.1821 11.4006 53.647L12.4899 54.2407C13.3578 54.7136 14.3314 54.9615 15.3208 54.9615H44.4237C45.4335 54.9615 46.4265 54.703 47.3073 54.2118L48.1938 53.717C49.1072 53.207 49.8676 52.4643 50.3967 51.565L55.147 43.4921C55.6754 42.5935 55.9541 41.5711 55.9541 40.5299V40.3915C55.9541 39.5219 55.7599 38.6632 55.3849 37.8777L41.1309 7.99324C39.7244 5.42536 38.4787 4.26647 35.6178 3.29886C35.0764 3.11575 34.5045 3.03845 33.9327 3.03845Z" stroke="#333333" stroke-width="6"/>
</svg>
