<svg width="31" height="32" viewBox="0 0 31 32" fill="none" xmlns="http://www.w3.org/2000/svg">
<path d="M25.8332 23.1041C26.3307 23.1044 26.8091 23.2961 27.1693 23.6394C27.5294 23.9828 27.7436 24.4515 27.7675 24.9485C27.7914 25.4455 27.6232 25.9327 27.2977 26.309C26.9722 26.6854 26.5144 26.9221 26.0192 26.9701L25.8332 26.9791H5.1665C4.66893 26.9789 4.19053 26.7872 3.83042 26.4439C3.47031 26.1005 3.25611 25.6318 3.2322 25.1348C3.20829 24.6378 3.3765 24.1506 3.70198 23.7743C4.02746 23.3979 4.48525 23.1612 4.9805 23.1132L5.1665 23.1041H25.8332ZM25.8332 14.0625C26.347 14.0625 26.8398 14.2666 27.2032 14.63C27.5665 14.9933 27.7707 15.4861 27.7707 16C27.7707 16.5138 27.5665 17.0066 27.2032 17.37C26.8398 17.7334 26.347 17.9375 25.8332 17.9375H5.1665C4.65265 17.9375 4.15984 17.7334 3.79648 17.37C3.43313 17.0066 3.229 16.5138 3.229 16C3.229 15.4861 3.43313 14.9933 3.79648 14.63C4.15984 14.2666 4.65265 14.0625 5.1665 14.0625H25.8332ZM25.8332 5.02081C26.347 5.02081 26.8398 5.22494 27.2032 5.58829C27.5665 5.95165 27.7707 6.44446 27.7707 6.95831C27.7707 7.47217 27.5665 7.96498 27.2032 8.32833C26.8398 8.69168 26.347 8.89581 25.8332 8.89581H5.1665C4.65265 8.89581 4.15984 8.69168 3.79648 8.32833C3.43313 7.96498 3.229 7.47217 3.229 6.95831C3.229 6.44446 3.43313 5.95165 3.79648 5.58829C4.15984 5.22494 4.65265 5.02081 5.1665 5.02081H25.8332Z" fill="#000001"/>
</svg>
