<svg width="20" height="20" viewBox="0 0 20 20" fill="none" xmlns="http://www.w3.org/2000/svg">
<path d="M14.1668 14.75C13.2418 14.75 12.5002 15.4546 12.5002 16.3333C12.5002 16.7532 12.6758 17.156 12.9883 17.4529C13.3009 17.7498 13.7248 17.9166 14.1668 17.9166C14.6089 17.9166 15.0328 17.7498 15.3453 17.4529C15.6579 17.156 15.8335 16.7532 15.8335 16.3333C15.8335 15.9134 15.6579 15.5107 15.3453 15.2137C15.0328 14.9168 14.6089 14.75 14.1668 14.75ZM0.833496 2.08331V3.66665H2.50016L5.50016 9.6754L4.36683 11.615C4.24183 11.8366 4.16683 12.0979 4.16683 12.375C4.16683 12.7949 4.34242 13.1976 4.65498 13.4946C4.96754 13.7915 5.39147 13.9583 5.8335 13.9583H15.8335V12.375H6.1835C6.12824 12.375 6.07525 12.3541 6.03618 12.317C5.99711 12.2799 5.97516 12.2296 5.97516 12.1771C5.97516 12.1375 5.9835 12.1058 6.00016 12.0821L6.75016 10.7916H12.9585C13.5835 10.7916 14.1335 10.4591 14.4168 9.97623L17.4002 4.85415C17.4585 4.72748 17.5002 4.5929 17.5002 4.45831C17.5002 4.24835 17.4124 4.04699 17.2561 3.89852C17.0998 3.75005 16.8878 3.66665 16.6668 3.66665H4.34183L3.5585 2.08331M5.8335 14.75C4.9085 14.75 4.16683 15.4546 4.16683 16.3333C4.16683 16.7532 4.34242 17.156 4.65498 17.4529C4.96754 17.7498 5.39147 17.9166 5.8335 17.9166C6.27552 17.9166 6.69945 17.7498 7.01201 17.4529C7.32457 17.156 7.50016 16.7532 7.50016 16.3333C7.50016 15.9134 7.32457 15.5107 7.01201 15.2137C6.69945 14.9168 6.27552 14.75 5.8335 14.75Z" fill="black"/>
</svg>
