<svg width="139" height="16" viewBox="0 0 139 16" fill="none" xmlns="http://www.w3.org/2000/svg">
<path d="M0.387725 15.1733V12.4733L12.2964 12.494C12.9039 12.494 13.3664 12.3556 13.684 12.0787C14.0153 11.7879 14.181 11.324 14.181 10.6871C14.181 10.0502 14.0153 9.59327 13.684 9.31635C13.3664 9.02558 12.9039 8.88019 12.2964 8.88019H4.88195C3.34936 8.88019 2.15504 8.51327 1.299 7.77942C0.45677 7.03173 0.0356445 5.93789 0.0356445 4.49789C0.0356445 3.05789 0.45677 1.97096 1.299 1.23712C2.15504 0.489424 3.34936 0.11558 4.88195 0.11558H16.5213V2.81558L5.23403 2.79481C4.64032 2.79481 4.17779 2.93327 3.84642 3.21019C3.51505 3.47327 3.34936 3.9025 3.34936 4.49789C3.34936 5.09327 3.51505 5.52943 3.84642 5.80635C4.17779 6.06943 4.64032 6.20096 5.23403 6.20096H12.6484C14.181 6.20096 15.3685 6.58173 16.2107 7.34327C17.0667 8.09096 17.4947 9.20558 17.4947 10.6871C17.4947 12.1548 17.0667 13.2694 16.2107 14.031C15.3685 14.7925 14.181 15.1733 12.6484 15.1733H0.387725ZM19.5727 15.0694V0.219424H35.8099V2.91942H22.8864V6.20096H34.6086V8.90096H22.8864V12.3694H35.8099V15.0694H19.5727ZM45.7004 15.1733C42.9665 15.1733 40.8748 14.5433 39.425 13.2833C37.9753 12.0094 37.2504 10.1263 37.2504 7.63404C37.2504 5.15558 37.9753 3.27942 39.425 2.00558C40.8748 0.731732 42.9665 0.101734 45.7004 0.11558L53.1562 0.157117V2.81558H45.9282C44.1332 2.81558 42.8009 3.19635 41.931 3.95789C41.0612 4.71943 40.6262 5.94481 40.6262 7.63404C40.6262 9.32327 41.0612 10.5556 41.931 11.331C42.8009 12.0925 44.1332 12.4733 45.9282 12.4733H53.3633V15.1733H45.7004ZM61.4174 15.1733C59.9125 15.1733 58.7251 14.9794 57.8552 14.5917C56.9854 14.1902 56.364 13.5879 55.9912 12.7848C55.6185 11.9817 55.4321 10.971 55.4321 9.7525V0.219424H58.7458V9.7525C58.7458 10.8048 58.9874 11.5248 59.4706 11.9125C59.9677 12.2863 60.803 12.4733 61.9766 12.4733H65.9738C67.1474 12.4733 67.9758 12.2863 68.4591 11.9125C68.9561 11.5248 69.2047 10.8048 69.2047 9.7525V0.219424H72.5184V9.7525C72.5184 10.971 72.332 11.9817 71.9592 12.7848C71.5864 13.5879 70.965 14.1902 70.0952 14.5917C69.2254 14.9794 68.038 15.1733 66.533 15.1733H61.4174ZM75.4144 15.0694V0.219424H87.8201C89.3527 0.219424 90.5401 0.607118 91.3823 1.3825C92.2384 2.15789 92.6664 3.33481 92.6664 4.91327C92.6664 6.25635 92.3557 7.30866 91.7344 8.07019C91.1131 8.83173 90.2294 9.30942 89.0834 9.50327L92.5007 15.0694H88.7314L85.5626 9.60712H78.7281V15.0694H75.4144ZM87.4266 2.91942H78.7281V6.88635L87.4266 6.90712C88.0341 6.90712 88.4966 6.75481 88.8142 6.45019C89.1456 6.14558 89.3112 5.63327 89.3112 4.91327C89.3112 4.17942 89.1456 3.66712 88.8142 3.37635C88.4966 3.07173 88.0341 2.91942 87.4266 2.91942ZM95.154 15.0694V0.219424H98.4677V15.0694H95.154ZM100.845 7.73789V0.219424H119.071V7.73789H115.716V2.91942H111.201V15.0694H107.887V2.91942H104.2V7.73789H100.845ZM127.847 15.0694V9.77327L119.998 0.219424H124.098L129.504 6.94866L134.889 0.219424H138.989L131.181 9.7525V15.0694H127.847Z" fill="#333333"/>
</svg>
